<svg id="Layer_1" data-name="Layer 1" xmlns="http://www.w3.org/2000/svg" viewBox="0 0 96.55 108.33"><defs><style>.cls-1{fill:#116bb7;}.cls-2{fill:#e81c35;}.cls-3{fill:none;}</style></defs><title>Artboard 1</title><rect class="cls-1" x="84.24" y="93.65" width="10.36" height="3.89"/><path class="cls-1" d="M89.42,108.33a7.13,7.13,0,0,1-7.12-7.12V32.79l7.13-7.12,7.13,7.13V101.2a7.13,7.13,0,0,1-7.12,7.13M86.18,34.4V101.2a3.22,3.22,0,0,0,.95,2.29,3.31,3.31,0,0,0,4.58,0,3.22,3.22,0,0,0,1-2.29V34.4l-3.24-3.24Z"/><rect class="cls-1" x="87.48" y="23.02" width="3.89" height="5.39"/><rect class="cls-1" x="84.24" y="38.64" width="10.36" height="3.89"/><path class="cls-1" d="M75.82,108.33H0V7.94L7.94,0l6,6,6-6,6,6,6-6,6,6,6-6,6,6,6-6,6,6,6-6,7.94,7.94ZM3.89,104.44h68V9.55L67.88,5.5l-6,6-6-6-6,6-6-6-6,6-6-6-6,6-6-6-6,6-6-6L3.89,9.55Z"/><rect class="cls-1" x="28.13" y="56.22" width="17.26" height="3.88"/><rect class="cls-1" x="28.13" y="64.84" width="34.51" height="3.88"/><polygon class="cls-2" points="16.17 68.61 10.36 62.8 13.1 60.05 16.17 63.12 21.58 57.7 24.33 60.45 16.17 68.61"/><rect class="cls-1" x="28.13" y="38.96" width="17.26" height="3.88"/><rect class="cls-1" x="28.13" y="47.59" width="34.51" height="3.88"/><polygon class="cls-2" points="16.17 51.35 10.36 45.54 13.1 42.79 16.17 45.86 21.58 40.45 24.33 43.19 16.17 51.35"/><rect class="cls-1" x="28.13" y="21.7" width="17.26" height="3.88"/><rect class="cls-1" x="28.13" y="30.33" width="34.51" height="3.88"/><polygon class="cls-2" points="16.17 34.1 10.36 28.28 13.1 25.54 16.17 28.61 21.58 23.19 24.33 25.94 16.17 34.1"/><rect class="cls-1" x="28.39" y="74.35" width="17.26" height="3.88"/><rect class="cls-1" x="28.39" y="82.98" width="34.51" height="3.88"/><polygon class="cls-2" points="16.43 86.75 10.62 80.93 13.36 78.19 16.43 81.25 21.84 75.84 24.59 78.59 16.43 86.75"/><rect class="cls-3" width="96.55" height="108.33"/></svg>