<svg id="Layer_1" data-name="Layer 1" xmlns="http://www.w3.org/2000/svg" viewBox="0 0 103.11 97.6"><defs><style>.cls-1{fill:#116bb7;}.cls-2{fill:#e81c35;}.cls-3{fill:none;}</style></defs><title>Artboard 1</title><polygon class="cls-1" points="64.21 86.62 64.21 93.72 38.9 93.72 38.9 86.62 35.02 86.62 35.02 97.6 68.09 97.6 68.09 86.62 64.21 86.62"/><rect class="cls-1" x="28.64" y="93.72" width="45.84" height="3.88"/><path class="cls-1" d="M103.11,71.1H0V5.44A5.44,5.44,0,0,1,5.44,0H97.67a5.45,5.45,0,0,1,5.44,5.44ZM3.88,67.22H99.23V5.44a1.56,1.56,0,0,0-.46-1.11,1.54,1.54,0,0,0-1.1-.45H5.44A1.56,1.56,0,0,0,3.88,5.44Z"/><path class="cls-1" d="M97.67,82.77H5.44A5.44,5.44,0,0,1,0,77.33V67.22H103.11V77.33a5.44,5.44,0,0,1-5.44,5.44M3.88,71.1v6.23a1.56,1.56,0,0,0,1.56,1.56H97.67a1.53,1.53,0,0,0,1.1-.45,1.55,1.55,0,0,0,.46-1.11V71.1Z"/><path class="cls-1" d="M94.84,62.83H8.27V8.27H94.84ZM12.15,59H91V12.15H12.15Z"/><path class="cls-2" d="M51.56,51A15.49,15.49,0,1,1,67,35.55,15.51,15.51,0,0,1,51.56,51m0-27.1A11.61,11.61,0,1,0,63.16,35.55,11.62,11.62,0,0,0,51.56,23.94"/><path class="cls-2" d="M51.56,42.52a7,7,0,1,1,7-7,7,7,0,0,1-7,7m0-10a3.08,3.08,0,1,0,3.07,3.08,3.08,3.08,0,0,0-3.07-3.08"/><rect class="cls-2" x="49.62" y="16.57" width="3.88" height="5.43"/><rect class="cls-2" x="41.48" y="18.75" width="3.88" height="5.43" transform="translate(-4.91 24.58) rotate(-29.99)"/><rect class="cls-2" x="35.53" y="24.7" width="3.88" height="5.44" transform="translate(-5.03 46.12) rotate(-59.95)"/><rect class="cls-2" x="32.57" y="33.61" width="5.44" height="3.88"/><rect class="cls-2" x="34.75" y="41.74" width="5.44" height="3.88" transform="translate(-16.84 24.65) rotate(-30.07)"/><rect class="cls-2" x="40.71" y="47.7" width="5.43" height="3.88" transform="translate(-21.28 62.43) rotate(-60.01)"/><rect class="cls-2" x="49.62" y="49.1" width="3.88" height="5.43"/><rect class="cls-2" x="57.75" y="46.92" width="3.88" height="5.43" transform="translate(-16.83 36.51) rotate(-30.01)"/><rect class="cls-2" x="63.7" y="40.96" width="3.88" height="5.44" transform="matrix(0.5, -0.87, 0.87, 0.5, -5.03, 78.64)"/><rect class="cls-2" x="65.1" y="33.61" width="5.43" height="3.88"/><rect class="cls-2" x="62.92" y="25.48" width="5.44" height="3.88" transform="translate(-4.9 36.59) rotate(-30.08)"/><rect class="cls-2" x="56.97" y="19.52" width="5.43" height="3.88" transform="translate(11.25 62.41) rotate(-59.99)"/><rect class="cls-3" width="103.11" height="97.6"/></svg>